# xmcd
#
# Track frame offsets: 
#        150
#        19922
#        34975
#        57152
#        79607
#        97027
#        113912
#        129890
#        149315
#        168290
#
# Disc length: 2506 seconds
#
# Revision: 12
# Processed by: cddbd v1.5.2PL0 Copyright (c) Steve Scherf et al.
# Submitted via: ExactAudioCopy v1.3
#
DISCID=7e09c80a
DTITLE=松任谷由実 - Delight Slight Light KISS
DYEAR=1988
DGENRE=JPop
TTITLE0=リフレインが叫んでる
TTITLE1=Nobody Else
TTITLE2=ふってあげる
TTITLE3=誕生日おめでとう
TTITLE4=Home Townへようこそ
TTITLE5=とこしえにGood Night (夜明けの色)
TTITLE6=恋はNo-Return
TTITLE7=幸せはあなたへの復讐
TTITLE8=吹雪の中を
TTITLE9=September Blue Moon
EXTD=
EXTT0=
EXTT1=
EXTT2=
EXTT3=
EXTT4=
EXTT5=
EXTT6=
EXTT7=
EXTT8=
EXTT9=
PLAYORDER=
